HIERARCHY
ROOT mixamorig:Hips
{
	OFFSET 0.000000 201.639420 0.000000
	CHANNELS 6 Xposition Yposition Zposition Xrotation Yrotation Zrotation
	JOINT mixamorig:Spine
	{
		OFFSET 0.006200 19.524994 -2.481800
		CHANNELS 3 Xrotation Yrotation Zrotation
		JOINT mixamorig:Spine1
		{
			OFFSET -0.000900 22.835007 -2.825400
			CHANNELS 3 Xrotation Yrotation Zrotation
			JOINT mixamorig:Spine2
			{
				OFFSET -0.020600 26.552490 -3.193300
				CHANNELS 3 Xrotation Yrotation Zrotation
				JOINT mixamorig:Neck
				{
					OFFSET -0.060000 30.701813 1.352200
					CHANNELS 3 Xrotation Yrotation Zrotation
					JOINT mixamorig:Head
					{
						OFFSET -0.087200 22.547607 3.670900
						CHANNELS 3 Xrotation Yrotation Zrotation
						JOINT mixamorig:HeadTop_End
						{
							OFFSET -0.830600 40.355194 7.893500
							CHANNELS 3 Xrotation Yrotation Zrotation
							End Site
							{
								OFFSET 0.000000 30.592346 0.000000
							}
						}
						JOINT mixamorig:RightEye
						{
							OFFSET -6.302100 18.118591 16.197100
							CHANNELS 3 Xrotation Yrotation Zrotation
							End Site
							{
								OFFSET 0.000000 30.592346 0.000000
							}
						}
						JOINT mixamorig:LeftEye
						{
							OFFSET 6.741500 18.382690 16.401899
							CHANNELS 3 Xrotation Yrotation Zrotation
							End Site
							{
								OFFSET 0.000000 30.592346 0.000000
							}
						}
					}
				}
				JOINT mixamorig:LeftShoulder
				{
					OFFSET 11.924900 18.230499 1.425400
					CHANNELS 3 Xrotation Yrotation Zrotation
					JOINT mixamorig:LeftArm
					{
						OFFSET 25.435989 -0.697632 -5.229300
						CHANNELS 3 Xrotation Yrotation Zrotation
						JOINT mixamorig:LeftForeArm
						{
							OFFSET 54.684776 0.000000 0.000000
							CHANNELS 3 Xrotation Yrotation Zrotation
							JOINT mixamorig:LeftHand
							{
								OFFSET 55.098175 0.000000 0.000000
								CHANNELS 3 Xrotation Yrotation Zrotation
								JOINT mixamorig:LeftHandMiddle1
								{
									OFFSET 23.369751 0.000000 0.000000
									CHANNELS 3 Xrotation Yrotation Zrotation
									JOINT mixamorig:LeftHandMiddle2
									{
										OFFSET 6.378677 0.000000 0.000000
										CHANNELS 3 Xrotation Yrotation Zrotation
										JOINT mixamorig:LeftHandMiddle3
										{
											OFFSET 6.148331 0.000000 0.000000
											CHANNELS 3 Xrotation Yrotation Zrotation
											JOINT mixamorig:LeftHandMiddle4
											{
												OFFSET 6.582504 0.000000 0.000000
												CHANNELS 3 Xrotation Yrotation Zrotation
												End Site
												{
													OFFSET -1.168900 6.395691 1.028606
												}
											}
										}
									}
								}
								JOINT mixamorig:LeftHandThumb1
								{
									OFFSET 7.235672 -3.848206 5.434273
									CHANNELS 3 Xrotation Yrotation Zrotation
									JOINT mixamorig:LeftHandThumb2
									{
										OFFSET 6.568451 -3.792297 3.792300
										CHANNELS 3 Xrotation Yrotation Zrotation
										JOINT mixamorig:LeftHandThumb3
										{
											OFFSET 6.063080 -3.500519 3.500518
											CHANNELS 3 Xrotation Yrotation Zrotation
											JOINT mixamorig:LeftHandThumb4
											{
												OFFSET 4.793182 -2.767334 2.767349
												CHANNELS 3 Xrotation Yrotation Zrotation
												End Site
												{
													OFFSET 0.101639 6.054260 1.275483
												}
											}
										}
									}
								}
								JOINT mixamorig:LeftHandIndex1
								{
									OFFSET 23.101074 -0.309540 4.992809
									CHANNELS 3 Xrotation Yrotation Zrotation
									JOINT mixamorig:LeftHandIndex2
									{
										OFFSET 6.226883 0.000000 0.000000
										CHANNELS 3 Xrotation Yrotation Zrotation
										JOINT mixamorig:LeftHandIndex3
										{
											OFFSET 6.094330 0.000000 0.000000
											CHANNELS 3 Xrotation Yrotation Zrotation
											JOINT mixamorig:LeftHandIndex4
											{
												OFFSET 5.482605 0.000000 0.000000
												CHANNELS 3 Xrotation Yrotation Zrotation
												End Site
												{
													OFFSET -1.427902 5.233032 0.797164
												}
											}
										}
									}
								}
								JOINT mixamorig:LeftHandRing1
								{
									OFFSET 22.299240 0.021149 -3.964172
									CHANNELS 3 Xrotation Yrotation Zrotation
									JOINT mixamorig:LeftHandRing2
									{
										OFFSET 6.321869 0.000000 0.000000
										CHANNELS 3 Xrotation Yrotation Zrotation
										JOINT mixamorig:LeftHandRing3
										{
											OFFSET 5.899796 0.000000 0.000000
											CHANNELS 3 Xrotation Yrotation Zrotation
											JOINT mixamorig:LeftHandRing4
											{
												OFFSET 6.517899 0.000000 0.000000
												CHANNELS 3 Xrotation Yrotation Zrotation
												End Site
												{
													OFFSET -1.637299 6.232208 0.980890
												}
											}
										}
									}
								}
								JOINT mixamorig:LeftHandPinky1
								{
									OFFSET 20.463791 -0.302338 -8.562233
									CHANNELS 3 Xrotation Yrotation Zrotation
									JOINT mixamorig:LeftHandPinky2
									{
										OFFSET 6.908646 0.000000 0.000000
										CHANNELS 3 Xrotation Yrotation Zrotation
										JOINT mixamorig:LeftHandPinky3
										{
											OFFSET 4.622849 0.000000 0.000000
											CHANNELS 3 Xrotation Yrotation Zrotation
											JOINT mixamorig:LeftHandPinky4
											{
												OFFSET 5.216080 0.000000 0.000000
												CHANNELS 3 Xrotation Yrotation Zrotation
												End Site
												{
													OFFSET -0.606308 5.116241 0.814926
												}
											}
										}
									}
								}
							}
						}
					}
				}
				JOINT mixamorig:RightShoulder
				{
					OFFSET -12.001300 18.284088 1.348900
					CHANNELS 3 Xrotation Yrotation Zrotation
					JOINT mixamorig:RightArm
					{
						OFFSET -25.308500 -0.751312 -5.164599
						CHANNELS 3 Xrotation Yrotation Zrotation
						JOINT mixamorig:RightForeArm
						{
							OFFSET -54.684429 0.000000 0.000000
							CHANNELS 3 Xrotation Yrotation Zrotation
							JOINT mixamorig:RightHand
							{
								OFFSET -55.150291 0.000000 0.000000
								CHANNELS 3 Xrotation Yrotation Zrotation
								JOINT mixamorig:RightHandMiddle1
								{
									OFFSET -23.317566 0.000000 0.000000
									CHANNELS 3 Xrotation Yrotation Zrotation
									JOINT mixamorig:RightHandMiddle2
									{
										OFFSET -6.378403 0.000000 0.000000
										CHANNELS 3 Xrotation Yrotation Zrotation
										JOINT mixamorig:RightHandMiddle3
										{
											OFFSET -6.148193 0.000000 0.000000
											CHANNELS 3 Xrotation Yrotation Zrotation
											JOINT mixamorig:RightHandMiddle4
											{
												OFFSET -6.583389 0.000000 0.000000
												CHANNELS 3 Xrotation Yrotation Zrotation
												End Site
												{
													OFFSET 1.171692 6.395905 1.029786
												}
											}
										}
									}
								}
								JOINT mixamorig:RightHandThumb1
								{
									OFFSET -7.190521 -3.860474 5.435846
									CHANNELS 3 Xrotation Yrotation Zrotation
									JOINT mixamorig:RightHandThumb2
									{
										OFFSET -6.567429 -3.791718 3.791708
										CHANNELS 3 Xrotation Yrotation Zrotation
										JOINT mixamorig:RightHandThumb3
										{
											OFFSET -6.062469 -3.500153 3.500166
											CHANNELS 3 Xrotation Yrotation Zrotation
											JOINT mixamorig:RightHandThumb4
											{
												OFFSET -4.792618 -2.767029 2.767022
												CHANNELS 3 Xrotation Yrotation Zrotation
												End Site
												{
													OFFSET -0.100327 6.053253 1.276754
												}
											}
										}
									}
								}
								JOINT mixamorig:RightHandIndex1
								{
									OFFSET -23.048981 -0.310791 4.992554
									CHANNELS 3 Xrotation Yrotation Zrotation
									JOINT mixamorig:RightHandIndex2
									{
										OFFSET -6.227539 0.000000 0.000000
										CHANNELS 3 Xrotation Yrotation Zrotation
										JOINT mixamorig:RightHandIndex3
										{
											OFFSET -6.095047 0.000000 0.000000
											CHANNELS 3 Xrotation Yrotation Zrotation
											JOINT mixamorig:RightHandIndex4
											{
												OFFSET -5.484772 0.000000 0.000000
												CHANNELS 3 Xrotation Yrotation Zrotation
												End Site
												{
													OFFSET 1.420593 5.237305 0.797056
												}
											}
										}
									}
								}
								JOINT mixamorig:RightHandRing1
								{
									OFFSET -22.246323 0.020569 -3.963762
									CHANNELS 3 Xrotation Yrotation Zrotation
									JOINT mixamorig:RightHandRing2
									{
										OFFSET -6.322128 0.000000 0.000000
										CHANNELS 3 Xrotation Yrotation Zrotation
										JOINT mixamorig:RightHandRing3
										{
											OFFSET -5.900024 0.000000 0.000000
											CHANNELS 3 Xrotation Yrotation Zrotation
											JOINT mixamorig:RightHandRing4
											{
												OFFSET -6.518356 0.000000 0.000000
												CHANNELS 3 Xrotation Yrotation Zrotation
												End Site
												{
													OFFSET 1.636398 6.232697 0.982186
												}
											}
										}
									}
								}
								JOINT mixamorig:RightHandPinky1
								{
									OFFSET -20.411011 -0.303314 -8.561701
									CHANNELS 3 Xrotation Yrotation Zrotation
									JOINT mixamorig:RightHandPinky2
									{
										OFFSET -6.907349 0.000000 0.000000
										CHANNELS 3 Xrotation Yrotation Zrotation
										JOINT mixamorig:RightHandPinky3
										{
											OFFSET -4.623840 0.000000 0.000000
											CHANNELS 3 Xrotation Yrotation Zrotation
											JOINT mixamorig:RightHandPinky4
											{
												OFFSET -5.218353 0.000000 0.000000
												CHANNELS 3 Xrotation Yrotation Zrotation
												End Site
												{
													OFFSET 0.602097 5.118835 0.816273
												}
											}
										}
									}
								}
							}
						}
					}
				}
			}
		}
	}
	JOINT mixamorig:LeftUpLeg
	{
		OFFSET 18.168400 -13.561905 -0.039000
		CHANNELS 3 Xrotation Yrotation Zrotation
		JOINT mixamorig:LeftLeg
		{
			OFFSET 0.577358 -80.825211 -3.695000
			CHANNELS 3 Xrotation Yrotation Zrotation
			JOINT mixamorig:LeftFoot
			{
				OFFSET -0.577356 -83.370262 -6.520700
				CHANNELS 3 Xrotation Yrotation Zrotation
				JOINT mixamorig:LeftToeBase
				{
					OFFSET 0.750401 -20.798306 25.135401
					CHANNELS 3 Xrotation Yrotation Zrotation
					JOINT mixamorig:LeftToe_End
					{
						OFFSET -0.000500 0.001200 19.917799
						CHANNELS 3 Xrotation Yrotation Zrotation
						End Site
						{
							OFFSET 0.000000 19.917805 0.000000
						}
					}
				}
			}
		}
	}
	JOINT mixamorig:RightUpLeg
	{
		OFFSET -18.162500 -13.585098 -0.041000
		CHANNELS 3 Xrotation Yrotation Zrotation
		JOINT mixamorig:RightLeg
		{
			OFFSET -0.595024 -80.945297 -3.631900
			CHANNELS 3 Xrotation Yrotation Zrotation
			JOINT mixamorig:RightFoot
			{
				OFFSET 0.595024 -83.218193 -6.561200
				CHANNELS 3 Xrotation Yrotation Zrotation
				JOINT mixamorig:RightToeBase
				{
					OFFSET -0.753601 -20.807106 25.115000
					CHANNELS 3 Xrotation Yrotation Zrotation
					JOINT mixamorig:RightToe_End
					{
						OFFSET 0.000299 0.001700 19.918200
						CHANNELS 3 Xrotation Yrotation Zrotation
						End Site
						{
							OFFSET 0.000000 19.918203 0.000000
						}
					}
				}
			}
		}
	}
}
MOTION
Frames: 4
Frame Time: 0.033333
-0.012708 173.029297 -0.641750 -5.398708 -46.252009 -0.056114 9.475562 7.180807 -1.803803 2.187719 0.989894 -0.915631 2.202829 0.982767 -0.894151 0.084648 13.220560 4.538680 8.920924 20.138143 -4.130235 0.000001 -0.000000 -0.000000 0.000001 -0.000000 -0.000000 0.000001 -0.000000 -0.000000 1.117174 3.546358 -8.633313 -53.487024 4.935481 -51.503000 -0.000024 -106.358046 -0.000041 1.988604 -7.706146 -15.869226 -0.461472 3.841580 -39.722690 6.450733 5.820352 -95.892844 2.182902 4.561567 -51.127743 0.000002 -0.000000 0.000002 -6.141207 -11.690815 -6.761694 9.914093 42.595522 3.409853 -0.422810 8.108108 27.509121 -0.000001 0.000003 -0.000000 0.255313 3.378210 -45.814358 5.654075 5.847753 -88.067455 2.162140 4.544813 -50.866379 -0.000000 0.000001 -0.000002 0.469727 4.966829 -39.799447 8.181050 5.368622 -113.503018 3.200487 5.218109 -63.022975 -0.000003 0.000002 0.000001 -3.762431 9.063694 -45.253832 5.342533 5.829001 -85.005304 8.716853 5.103350 -119.369194 -0.000001 -0.000001 0.000000 3.036125 13.027212 -5.371410 -48.713712 27.172832 83.457077 0.000234 105.988287 -0.000233 -8.345357 17.548108 8.775679 -0.761620 -2.932901 39.031055 5.133888 -4.632773 95.881635 1.739750 -3.631695 51.181360 0.000002 0.000001 -0.000000 -7.341114 13.749654 7.412336 9.855779 -44.489096 -3.903252 -0.115780 -14.513085 -28.973884 -0.000003 0.000002 -0.000000 -0.124381 -2.384781 45.108864 4.500570 -4.654514 88.071150 1.723225 -3.618376 50.920126 0.000001 0.000000 -0.000001 0.154761 -4.068820 39.122661 6.509737 -4.273598 113.462891 2.549580 -4.153893 63.067344 0.000000 0.000002 0.000000 -4.198877 -8.025511 44.637772 4.252909 -4.639633 85.014839 6.935965 -4.062629 119.322298 0.000003 0.000001 0.000001 -34.130971 7.615424 16.986781 59.307038 -6.173518 4.298898 -22.400235 -8.372833 -14.231601 -1.594031 0.000000 0.000001 0.000000 0.000000 0.000000 -27.091471 -9.870189 -27.857041 58.168896 -9.793232 -7.732090 -23.346323 -5.495889 20.853054 -0.013005 -0.000026 0.000003 -0.000000 -0.000000 -0.000001 
5.647941 173.568802 -0.837105 -5.204670 -46.022805 0.514538 8.940803 7.103775 -1.110317 1.845240 0.817965 -0.588235 1.862022 0.815979 -0.572130 0.428138 13.400250 4.000858 10.878585 19.957014 -3.844638 0.000001 -0.000000 0.000000 0.000001 -0.000000 0.000000 0.000001 -0.000000 0.000000 0.925307 4.022835 -8.156031 -52.581337 5.192271 -50.438174 0.000188 -108.314383 0.000197 1.503575 -7.240666 -16.888259 -0.461471 3.841581 -39.722686 6.450735 5.820351 -95.892837 2.182899 4.561567 -51.127740 0.000001 -0.000001 0.000000 -6.141205 -11.690811 -6.761691 9.914077 42.595522 3.409843 -0.422804 8.108105 27.509121 -0.000003 0.000002 -0.000000 0.255315 3.378216 -45.814361 5.654075 5.847751 -88.067455 2.162144 4.544813 -50.866372 -0.000000 -0.000001 -0.000002 0.469727 4.966832 -39.799444 8.181055 5.368620 -113.503018 3.200487 5.218112 -63.022982 -0.000000 -0.000000 -0.000003 -3.762431 9.063696 -45.253832 5.342531 5.829000 -85.005304 8.716852 5.103348 -119.369194 0.000000 -0.000000 0.000000 3.613233 14.030979 -4.726468 -50.170376 27.666545 81.486465 0.000171 105.217507 -0.000176 -9.271937 15.538045 7.920205 -0.761621 -2.932902 39.031058 5.133890 -4.632768 95.881635 1.739752 -3.631697 51.181357 -0.000001 -0.000001 0.000001 -7.341115 13.749651 7.412332 9.855780 -44.489096 -3.903267 -0.115781 -14.513090 -28.973884 0.000001 -0.000000 0.000000 -0.124380 -2.384783 45.108864 4.500570 -4.654512 88.071150 1.723225 -3.618375 50.920122 0.000001 0.000000 -0.000001 0.154760 -4.068820 39.122664 6.509737 -4.273594 113.462891 2.549579 -4.153892 63.067344 -0.000001 -0.000001 -0.000000 -4.198877 -8.025511 44.637769 4.252907 -4.639635 85.014832 6.935965 -4.062626 119.322312 -0.000002 0.000000 0.000000 -34.445757 7.593536 19.334471 58.738807 -9.115697 3.493927 -24.213034 -9.675507 -20.164916 0.369039 0.000002 0.000002 -0.000000 -0.000000 0.000000 -29.163419 -9.795316 -29.885564 57.070738 -8.287226 -7.824524 -20.695109 -5.054198 20.646603 -0.001060 -0.000005 0.000950 -0.000000 -0.000000 0.000000 
11.126068 175.337112 -2.204096 -4.695262 -46.820417 0.764461 8.313291 6.817045 -1.418994 1.378750 0.650439 -0.667688 1.402432 0.629090 -0.651805 0.595069 13.375210 4.161149 11.567542 19.950540 -3.318559 -0.000000 -0.000000 0.000000 -0.000000 -0.000000 0.000000 -0.000000 -0.000000 0.000000 0.733118 3.803655 -6.868310 -53.463675 6.362001 -49.009688 -0.000143 -110.902649 -0.000161 1.412601 -5.588897 -17.502428 -0.461469 3.841581 -39.722683 6.450737 5.820351 -95.892844 2.182896 4.561567 -51.127733 0.000002 0.000001 0.000001 -6.141205 -11.690813 -6.761704 9.914086 42.595522 3.409842 -0.422805 8.108102 27.509125 0.000004 0.000003 -0.000003 0.255317 3.378210 -45.814358 5.654077 5.847751 -88.067455 2.162141 4.544813 -50.866372 0.000000 0.000000 -0.000002 0.469730 4.966831 -39.799447 8.181053 5.368617 -113.503011 3.200487 5.218111 -63.022975 0.000000 0.000003 0.000003 -3.762428 9.063693 -45.253838 5.342533 5.829002 -85.005304 8.716853 5.103350 -119.369194 -0.000001 0.000000 -0.000000 4.341435 14.646393 -3.662264 -53.607255 28.346477 80.610548 0.000531 103.023466 -0.000531 -10.129019 14.026234 6.864815 -0.761621 -2.932902 39.031058 5.133891 -4.632768 95.881635 1.739751 -3.631697 51.181357 0.000001 0.000001 0.000001 -7.341112 13.749651 7.412334 9.855767 -44.489100 -3.903268 -0.115786 -14.513092 -28.973884 0.000001 -0.000003 0.000001 -0.124378 -2.384784 45.108864 4.500574 -4.654511 88.071150 1.723224 -3.618377 50.920126 0.000001 0.000000 0.000000 0.154764 -4.068819 39.122664 6.509737 -4.273593 113.462891 2.549577 -4.153890 63.067344 -0.000001 0.000001 0.000005 -4.198876 -8.025510 44.637772 4.252911 -4.639632 85.014839 6.935964 -4.062628 119.322298 -0.000005 -0.000000 0.000001 -32.593970 7.857544 21.445889 55.835133 -8.473775 4.671251 -24.089877 -9.354653 -20.075562 0.854365 0.000012 -0.000002 0.000000 0.000000 -0.000000 -30.717997 -9.358361 -29.833997 54.381754 -7.457199 -8.053717 -17.168150 -4.486963 19.974793 -0.242507 -0.000019 0.000010 0.000000 -0.000000 -0.000000 
16.546459 177.468842 -4.465086 -4.048447 -48.323595 0.852081 7.804344 6.540447 -2.554892 0.946780 0.600093 -1.139971 0.977348 0.550061 -1.121467 0.560959 13.031788 5.067311 10.580842 19.765652 -2.954564 -0.000000 0.000001 -0.000000 -0.000000 0.000001 -0.000000 -0.000000 0.000001 -0.000000 0.641233 2.897735 -5.220225 -56.107777 7.787649 -47.640979 0.000224 -113.402252 0.000226 1.587278 -3.389625 -17.207480 -0.461472 3.841580 -39.722686 6.450734 5.820354 -95.892844 2.182897 4.561567 -51.127736 0.000001 -0.000001 0.000003 -6.141207 -11.690813 -6.761698 9.914084 42.595525 3.409848 -0.422809 8.108100 27.509118 -0.000003 0.000000 -0.000002 0.255316 3.378210 -45.814361 5.654076 5.847750 -88.067455 2.162140 4.544814 -50.866369 -0.000000 0.000000 0.000001 0.469729 4.966832 -39.799447 8.181053 5.368620 -113.503011 3.200487 5.218110 -63.022975 -0.000000 -0.000000 0.000001 -3.762430 9.063694 -45.253835 5.342539 5.829002 -85.005304 8.716854 5.103350 -119.369194 -0.000001 -0.000002 0.000000 4.696797 14.090588 -2.757813 -58.234138 28.457751 81.543839 0.000345 100.290687 -0.000350 -11.108127 13.630057 6.185736 -0.761620 -2.932902 39.031058 5.133889 -4.632768 95.881635 1.739750 -3.631696 51.181357 0.000001 -0.000001 0.000002 -7.341115 13.749651 7.412332 9.855773 -44.489093 -3.903253 -0.115782 -14.513085 -28.973888 0.000000 0.000001 0.000001 -0.124379 -2.384784 45.108864 4.500572 -4.654513 88.071150 1.723227 -3.618375 50.920126 0.000001 0.000002 -0.000001 0.154761 -4.068822 39.122664 6.509737 -4.273596 113.462884 2.549577 -4.153894 63.067351 0.000001 -0.000000 0.000003 -4.198877 -8.025512 44.637766 4.252909 -4.639633 85.014832 6.935965 -4.062632 119.322312 -0.000003 0.000000 0.000000 -28.918966 8.607831 22.921879 50.822348 -5.792670 7.370677 -20.476830 -6.902430 -15.645520 2.235694 0.000040 -0.000006 0.000000 -0.000003 0.000000 -31.773617 -8.314844 -27.963076 50.782993 -7.685820 -8.917075 -13.085741 -3.944682 19.496017 -0.228568 0.000019 0.000008 -0.000000 0.000002 0.000000 
